:version 1.10
:name ASF
:units
  mass 1
  length 1
  angle deg
:documentation
  ASF file generated by Kaydara
:root
  axis xyz
  order  tx ty tz rx ry rz
  position 0 0 0
  orientation 0 0 0
:bonedata
  begin
    id 1
    name RightUpLegDummy
    direction -1 2.30186e-007 8.31532e-007
    length 4.04083
    axis 0 0 0 xyz
  end
  begin
    id 2
    name RightUpLeg
    direction -0.000919234 -0.999985 0.00544864
    length 17.4221
    axis -3.80308 -0.00076134 -0.0523649 xyz
    dof rx ry rz
  end
  begin
    id 3
    name RightLeg
    direction -0.000919271 -0.999984 -0.00555045
    length 17.1239
    axis 4.00314 0.0181274 -0.183583 xyz
    dof rx ry rz
  end
  begin
    id 4
    name RightFoot
    direction -2.57843e-005 -4.04509e-007 1
    length 6.72091
    axis 8.18909e-005 -0.122003 -0.403008 xyz
    dof rx ry rz
  end
  begin
    id 5
    name RightToes
    direction 0.00116825 -0.014069 0.9999
    length 3.85082
    axis 0.000514414 0.540638 -0.356797 xyz
    dof rx ry rz
  end
  begin
    id 6
    name SpineDummy
    direction 0.0168869 0.966876 -0.254689
    length 6.99894
    axis 0 0 0 xyz
  end
  begin
    id 7
    name Spine
    direction -0.0132008 0.999903 0.00446247
    length 11.1999
    axis -0.00148109 0.00725429 0.756411 xyz
    dof rx ry rz
  end
  begin
    id 8
    name Spine1
    direction 0 0 0
    length 0
    axis -0.000934958 0.0245693 1.46543 xyz
    dof rx ry rz
  end
  begin
    id 9
    name HEadDummy
    direction -0.0255732 0.999672 0.00128215
    length 3.43865
    axis -0.000934958 0.0245693 1.46543 xyz
  end
  begin
    id 10
    name HEad
    direction -0.0472656 0.980052 0.19304
    length 5.12695
    axis -0.000934954 0.0245693 1.46543 xyz
    dof rx ry rz
  end
  begin
    id 11
    name LeftShoulder1Dummy
    direction 0.953098 0.301717 -0.023914
    length 3.68488
    axis -0.000934958 0.0245693 1.46543 xyz
  end
  begin
    id 12
    name LeftShoulder1
    direction 0.962466 0.271167 0.0112566
    length 3.13809
    axis -0.000934958 0.0245693 1.46543 xyz
    dof rx ry rz
  end
  begin
    id 13
    name LeftArm
    direction 0.999943 0.00455037 -0.00961766
    length 11.3419
    axis -23.1648 0.685459 1.22814 xyz
    dof rx ry rz
  end
  begin
    id 14
    name LeftForeArm
    direction 0.999332 0.0131969 0.0340885
    length 8.70632
    axis -9.90633 0.618216 0.0826942 xyz
    dof rx ry rz
  end
  begin
    id 15
    name LeftHand
    direction 0.994373 -0.0366703 0.0993905
    length 5.32135
    axis 0.00675269 0.680415 0.445699 xyz
    dof rx ry rz
  end
  begin
    id 16
    name RightShoulderDummy
    direction -0.967298 0.252589 -0.0230903
    length 3.68488
    axis -0.000934958 0.0245693 1.46543 xyz
  end
  begin
    id 17
    name RightShoulder
    direction -0.975062 0.221602 0.0120823
    length 3.13809
    axis 0.216257 0.0246515 1.45863 xyz
    dof rx ry rz
  end
  begin
    id 18
    name RightArm
    direction -0.99886 -0.00851186 -0.0469687
    length 10.3947
    axis -23.196 0.23503 -0.532632 xyz
    dof rx ry rz
  end
  begin
    id 19
    name RightForeArm
    direction -0.99909 0.00114866 0.0426317
    length 8.68355
    axis -9.91764 -0.134943 0.610517 xyz
    dof rx ry rz
  end
  begin
    id 20
    name RightHand
    direction -0.992888 -0.0489538 0.10852
    length 5.28593
    axis -0.00275396 -0.197403 0.246414 xyz
    dof rx ry rz
  end
  begin
    id 21
    name LeftUpLegDummy
    direction 1 -2.30186e-007 -8.31532e-007
    length 4.04083
    axis 0 0 0 xyz
  end
  begin
    id 22
    name LeftUpLeg
    direction -0.000920097 -1 2.79241e-006
    length 17.4221
    axis -3.48782 0.00143434 -0.0532288 xyz
    dof rx ry rz
  end
  begin
    id 23
    name LeftLeg
    direction -0.000920097 -1 2.7912e-006
    length 17.1239
    axis 3.68162 -0.00806512 -0.0529896 xyz
    dof rx ry rz
  end
  begin
    id 24
    name LeftFoot
    direction -2.57845e-005 -3.987e-007 1
    length 6.72091
    axis 3.02372e-005 -0.00147829 -0.214229 xyz
    dof rx ry rz
  end
  begin
    id 25
    name LeftToes
    direction 0.00813577 -0.00488255 0.999955
    length 3.85048
    axis 3.89895e-005 -0.0014783 -0.214229 xyz
    dof rx ry rz
  end
:hierarchy
  begin
    root RightUpLegDummy SpineDummy LeftUpLegDummy
    RightUpLegDummy RightUpLeg
    RightUpLeg RightLeg
    RightLeg RightFoot
    RightFoot RightToes
    SpineDummy Spine
    Spine Spine1
    Spine1 HEadDummy LeftShoulder1Dummy RightShoulderDummy
    HEadDummy HEad
    LeftShoulder1Dummy LeftShoulder1
    LeftShoulder1 LeftArm
    LeftArm LeftForeArm
    LeftForeArm LeftHand
    RightShoulderDummy RightShoulder
    RightShoulder RightArm
    RightArm RightForeArm
    RightForeArm RightHand
    LeftUpLegDummy LeftUpLeg
    LeftUpLeg LeftLeg
    LeftLeg LeftFoot
    LeftFoot LeftToes
  end

:SAMPLES-PER-SECOND 30
:FULLY-SPECIFIED
:DEGREES
124
root  -41.8597 34.9509 4.33289 -14.0306 86.4806 -23.7572
RightUpLeg  -8.70871 -12.399 -0.184442
RightLeg  2.75345 -2.65135 0.043918
RightFoot  8.32967 0.0508943 -0.20608
RightToes  -26.8236 -0.116643 -0.230519
Spine  -0.395184 0.84191 -0.584926
Spine1  -0.615187 1.93005 -0.540626
HEad  -76.7667 2.17402 3.5898
LeftShoulder1  -1.94126e-019 -3.10601e-018 -2.51263e-017
LeftArm  2.44454 -11.4402 -84.2931
LeftForeArm  31.8014 -59.2733 -16.2129
LeftHand  -0.446767 -4.15569 5.70996
RightShoulder  -4.96962e-017 0 -2.36833e-017
RightArm  10.1067 17.0486 83.5647
RightForeArm  62.8855 57.6458 12.3177
RightHand  -0.882576 2.70901 -12.8296
LeftUpLeg  -9.28595 7.16301 5.10987
LeftLeg  7.35572 16.8456 1.06501
LeftFoot  7.91079 -0.164124 2.59396
LeftToes  -27.6416 2.40056e-006 -7.68412e-008
125
root  -42.1382 34.941 4.36222 -15.7894 86.788 -26.5081
RightUpLeg  -10.2868 -12.8097 0.251195
RightLeg  3.04609 -2.55376 0.029335
RightFoot  8.44549 0.0514422 -0.195346
RightToes  -26.7953 -0.116973 -0.229087
Spine  0.0316975 0.866838 -0.638003
Spine1  0.127998 1.95609 -0.648958
HEad  -74.6599 1.53995 3.53133
LeftShoulder1  -1.94126e-019 -3.10601e-018 -2.51263e-017
LeftArm  2.21735 -10.3969 -84.9985
LeftForeArm  29.2368 -36.7693 -6.61606
LeftHand  -0.239783 -3.45258 3.39954
RightShoulder  -4.96962e-017 0 -2.36833e-017
RightArm  12.4266 15.7875 84.0389
RightForeArm  59.0136 35.7246 4.75623
RightHand  -0.877141 3.12571 -12.1574
LeftUpLeg  -11.154 7.2503 5.04791
LeftLeg  8.07337 16.4709 1.24628
LeftFoot  7.96181 -0.161416 2.54655
LeftToes  -27.5713 2.40056e-006 -7.68412e-008
126
root  -42.4415 34.9068 4.4158 -19.6416 87.226 -31.5683
RightUpLeg  -12.417 -12.9565 0.773854
RightLeg  3.99895 -2.85727 -0.0145987
RightFoot  8.17639 0.0531682 -0.213284
RightToes  -26.4121 -0.11733 -0.226272
Spine  0.506343 0.991839 -0.710432
Spine1  0.964523 2.27689 -0.851429
HEad  -73.025 1.06381 3.57224
LeftShoulder1  -1.94126e-019 -3.10601e-018 -2.51263e-017
LeftArm  -2.94861 -9.88895 -85.713
LeftForeArm  36.8059 -12.3967 -2.20382
LeftHand  -0.338471 -1.03235 6.25283
RightShoulder  -4.96962e-017 0 -2.36833e-017
RightArm  4.33417 15.0412 85.3304
RightForeArm  64.8881 10.1079 1.52861
RightHand  -0.59533 0.717359 -11.4111
LeftUpLeg  -13.5364 7.07676 5.02149
LeftLeg  9.27531 16.2107 1.56486
LeftFoot  7.91665 -0.158414 2.49699
LeftToes  -27.8982 2.40056e-006 -7.68412e-008
127
root  -42.7681 34.845 4.51482 -23.8951 87.4507 -37.6901
RightUpLeg  -15.4826 -12.4599 1.52588
RightLeg  5.40179 -3.57539 -0.10579
RightFoot  7.69681 0.0567338 -0.274775
RightToes  -26.0544 -0.117716 -0.224456
Spine  1.05287 1.25292 -0.769251
Spine1  1.96937 2.91544 -1.12572
HEad  -74.0152 1.22189 3.94343
LeftShoulder1  -1.94126e-019 -3.10601e-018 -2.51263e-017
LeftArm  5.44684 -4.62178 -82.6241
LeftForeArm  30.0327 -6.90988 -1.2136
LeftHand  -0.165448 3.59155 9.92462
RightShoulder  -4.96962e-017 0 -2.36833e-017
RightArm  -4.50025 10.6184 82.9938
RightForeArm  65.5247 1.28483 0.184769
RightHand  0.230482 -8.10786 -11.041
LeftUpLeg  -16.7714 7.52374 5.01777
LeftLeg  10.8267 15.544 1.92244
LeftFoot  7.77277 -0.149389 2.36031
LeftToes  -28.6719 2.40056e-006 -7.68412e-008
128
root  -43.1325 34.8103 4.56893 -38.2646 88.0036 -54.5003
RightUpLeg  -19.0625 -13.4967 2.57504
RightLeg  6.49184 -3.1809 -0.154554
RightFoot  7.54014 0.0517976 -0.23744
RightToes  -26.2036 -0.118671 -0.223112
Spine  1.33219 0.934042 -0.603246
Spine1  2.54793 2.16344 -0.760843
HEad  -76.9219 2.12969 3.70955
LeftShoulder1  -1.94126e-019 -3.10601e-018 -2.51263e-017
LeftArm  -3.54354 3.72983 -79.3849
LeftForeArm  32.3747 -4.70275 -0.828491
LeftHand  0.0529805 5.98839 13.4949
RightShoulder  -4.96962e-017 0 -2.36833e-017
RightArm  -13.6436 2.05768 79.1682
RightForeArm  60.3821 1.21853 0.21089
RightHand  1.09746 -15.2968 -13.2704
LeftUpLeg  -20.6915 7.03827 4.95986
LeftLeg  12.297 15.3307 2.29217
LeftFoot  7.72074 -0.144108 2.29694
LeftToes  -28.5392 2.40056e-006 -7.68412e-008
129
root  -43.4272 34.6887 4.66352 -54.3025 88.1947 -72.479
RightUpLeg  -22.8164 -13.9541 3.52739
RightLeg  9.17494 -3.06836 -0.293489
RightFoot  6.4237 0.0413948 -0.189694
RightToes  -26.0627 -0.117768 -0.221995
Spine  1.62651 0.760152 -0.400417
Spine1  3.13991 1.74144 -0.379642
HEad  -78.2435 2.72297 3.42246
LeftShoulder1  -1.94126e-019 -3.10601e-018 -2.51263e-017
LeftArm  -19.3605 12.2356 -75.7442
LeftForeArm  40.4979 0.971391 0.174242
LeftHand  -0.0891438 4.63838 11.5552
RightShoulder  -4.96962e-017 0 -2.36833e-017
RightArm  -34.6147 -7.45456 75.4663
RightForeArm  70.3901 2.45039 0.389372
RightHand  0.801923 -12.2961 -13.9859
LeftUpLeg  -24.6577 6.96926 5.03139
LeftLeg  15.2156 14.8205 2.98595
LeftFoot  7.00996 -0.113347 2.01197
LeftToes  -28.8822 2.40056e-006 -7.68412e-008
130
root  -43.7141 34.5268 4.76103 -73.9911 88.0402 -93.5168
RightUpLeg  -26.0251 -14.2305 4.46973
RightLeg  12.0154 -3.17711 -0.464022
RightFoot  5.16948 0.0319887 -0.160201
RightToes  -25.784 -0.116156 -0.220862
Spine  1.94837 0.61756 -0.246312
Spine1  3.94239 1.36391 -0.00783213
HEad  -77.2834 2.85219 3.98892
LeftShoulder1  -1.94126e-019 -3.10601e-018 -2.51263e-017
LeftArm  -23.7264 22.421 -71.83
LeftForeArm  37.7443 -4.40188 -0.761284
LeftHand  -0.314265 -1.05359 5.79625
RightShoulder  -4.96962e-017 0 -2.36833e-017
RightArm  -42.8996 -15.9071 72.2355
RightForeArm  69.9998 3.89159 0.621416
RightHand  -0.136169 -4.10541 -11.0181
LeftUpLeg  -28.1989 6.76618 5.35382
LeftLeg  18.4872 14.3718 3.75096
LeftFoot  6.06746 -0.0816528 1.70214
LeftToes  -29.2661 2.40056e-006 -7.68412e-008
131
root  -44.0111 34.4946 4.86163 -88.3904 87.7132 -108.805
RightUpLeg  -27.64 -14.2327 5.22223
RightLeg  12.575 -3.58374 -0.559283
RightFoot  5.09872 0.03428 -0.234534
RightToes  -25.6051 -0.114068 -0.219468
Spine  2.29384 0.442766 -0.124836
Spine1  4.81411 0.857671 0.353971
HEad  -72.2715 1.65999 4.11876
LeftShoulder1  -1.94126e-019 -3.10601e-018 -2.51263e-017
LeftArm  -19.928 31.0606 -68.3433
LeftForeArm  29.2296 -9.12332 -1.60816
LeftHand  -0.22163 -2.91079 3.32838
RightShoulder  -4.96962e-017 0 -2.36833e-017
RightArm  -36.2831 -24.7733 69.9244
RightForeArm  58.0654 8.31026 1.39929
RightHand  -0.320387 0.342676 -6.55715
LeftUpLeg  -30.2093 6.05194 5.84555
LeftLeg  19.572 14.56 4.09063
LeftFoot  6.25782 -0.0871205 1.7552
LeftToes  -29.513 2.40056e-006 -7.68412e-008
132
root  -44.2516 34.572 4.97218 -95.9153 87.1888 -117.19
RightUpLeg  -28.2286 -13.9192 5.97439
RightLeg  11.3487 -4.15991 -0.558043
RightFoot  5.94798 0.0432388 -0.382062
RightToes  -25.2411 -0.11174 -0.217569
Spine  2.77202 0.180164 0.00886637
Spine1  5.77518 0.0708248 0.887259
HEad  -66.316 0.596312 3.69447
LeftShoulder1  -1.94126e-019 -3.10601e-018 -2.51263e-017
LeftArm  -18.9476 37.0122 -66.3452
LeftForeArm  30.439 -10.1617 -1.7812
LeftHand  -0.336109 -1.65792 5.70759
RightShoulder  -4.96962e-017 0 -2.36833e-017
RightArm  -32.4096 -31.2037 68.2483
RightForeArm  55.8199 10.1761 1.53991
RightHand  -0.370539 -0.349215 -8.54426
LeftUpLeg  -31.3873 5.81923 6.34954
LeftLeg  19.1369 14.5118 3.96044
LeftFoot  7.10632 -0.110574 1.94218
LeftToes  -29.4721 2.40056e-006 -7.68412e-008
133
root  -44.4419 34.6505 5.05299 -100.819 86.8107 -122.747
RightUpLeg  -28.7614 -13.8211 6.50973
RightLeg  10.5403 -4.50214 -0.539309
RightFoot  6.60025 0.0497215 -0.477885
RightToes  -24.8402 -0.109406 -0.214554
Spine  3.2862 -0.0394401 0.0824294
Spine1  6.69311 -0.572656 1.29593
HEad  -60.1911 -0.154522 2.45569
LeftShoulder1  -1.94126e-019 -3.10601e-018 -2.51263e-017
LeftArm  -20.3912 41.246 -65.5162
LeftForeArm  33.8985 -9.0688 -1.58508
LeftHand  -0.462018 -0.0605587 9.91639
RightShoulder  -4.96962e-017 0 -2.36833e-017
RightArm  -33.5378 -35.3802 67.1581
RightForeArm  61.1644 9.19048 1.48748
RightHand  -0.365571 -2.05479 -12.5178
LeftUpLeg  -32.2392 5.86717 6.57201
LeftLeg  18.6188 14.216 3.74568
LeftFoot  7.926 -0.13412 2.09734
LeftToes  -29.2859 2.40056e-006 -7.68412e-008
134
root  -44.6174 34.6669 5.11231 -101.644 86.6848 -123.902
RightUpLeg  -29.6542 -13.612 6.76099
RightLeg  11.1182 -4.70249 -0.61147
RightFoot  6.60916 0.0513298 -0.4935
RightToes  -24.3967 -0.1073 -0.211349
Spine  3.81172 -0.197657 0.0391056
Spine1  7.70501 -0.933148 1.31376
HEad  -54.8192 0.133303 1.32045
LeftShoulder1  -1.94126e-019 -3.10601e-018 -2.51263e-017
LeftArm  -23.2032 44.1836 -65.0868
LeftForeArm  33.7378 -7.85651 -1.37183
LeftHand  -0.438028 1.53404 13.1173
RightShoulder  -4.96962e-017 0 -2.36833e-017
RightArm  -36.7021 -37.5858 66.3804
RightForeArm  66.9109 6.80623 1.13868
RightHand  -0.284309 -3.18164 -14.4612
LeftUpLeg  -32.9849 6.22241 6.56896
LeftLeg  18.728 13.7962 3.66522
LeftFoot  8.33289 -0.144567 2.1459
LeftToes  -29.2794 2.40056e-006 -7.68412e-008
